<?xml version="1.0" encoding="UTF-8"?>
<svg width="16" height="16" viewBox="0 0 16 16" xmlns="http://www.w3.org/2000/svg">
    <defs>
        <linearGradient id="bgGradient" x1="0%" y1="0%" x2="100%" y2="100%">
            <stop offset="0%" style="stop-color:#667eea;stop-opacity:1" />
            <stop offset="100%" style="stop-color:#764ba2;stop-opacity:1" />
        </linearGradient>
        <radialGradient id="sparkle1">
            <stop offset="0%" style="stop-color:#ffffff;stop-opacity:0.9" />
            <stop offset="100%" style="stop-color:#ffffff;stop-opacity:0" />
        </radialGradient>
    </defs>
    
    <!-- Background -->
    <rect width="16" height="16" rx="2.4" fill="url(#bgGradient)"/>
    
    <!-- Folder tab -->
    <rect x="4" y="4.319999999999999" 
          width="3.2" height="1.28" 
          rx="0.32" fill="rgba(255,255,255,0.3)"/>
    
    <!-- Folder body -->
    <rect x="4" y="5.6" 
          width="8" height="6.4" 
          rx="0.48" fill="rgba(255,255,255,0.25)"/>
    
    <!-- Sparkles -->
    <g opacity="0.9">
        <!-- Sparkle 1 -->
        <path d="M 4 2.7199999999999998 
                 L 4.32 3.68
                 L 5.28 4
                 L 4.32 4.32
                 L 4 5.28
                 L 3.68 4.32
                 L 2.7199999999999998 4
                 L 3.68 3.68 Z" 
              fill="white"/>
        
        <!-- Sparkle 2 -->
        <path d="M 11.2 2.24 
                 L 11.44 2.96
                 L 12.16 3.2
                 L 11.44 3.4400000000000004
                 L 11.2 4.16
                 L 10.959999999999999 3.4400000000000004
                 L 10.239999999999998 3.2
                 L 10.959999999999999 2.96 Z" 
              fill="white"/>
        
        <!-- Sparkle 3 -->
        <path d="M 12 9.280000000000001 
                 L 12.272 10.128
                 L 13.120000000000001 10.4
                 L 12.272 10.672
                 L 12 11.52
                 L 11.728 10.672
                 L 10.879999999999999 10.4
                 L 11.728 10.128 Z" 
              fill="white"/>
    </g>
    
    <!-- Broom handle -->
    <line x1="10.4" y1="6.4" 
          x2="8.8" y2="4.800000000000001" 
          stroke="rgba(255,255,255,0.8)" stroke-width="1.28" stroke-linecap="round"/>
    
    <!-- Broom bristles -->
    <path d="M 8 7.2
             L 12.8 7.2
             L 12 11.2
             L 8.8 11.2 Z"
          fill="rgba(255,255,255,0.7)"/>
    
    <!-- Bristle lines -->
    <g stroke="rgba(255,255,255,0.3)" stroke-width="0.32">
        <line x1="8.8" y1="7.2" 
              x2="9.120000000000001" y2="11.2"/>
        <line x1="9.6" y1="7.2" 
              x2="9.76" y2="11.2"/>
        <line x1="10.4" y1="7.2" 
              x2="10.4" y2="11.2"/>
        <line x1="11.200000000000001" y1="7.2" 
              x2="11.040000000000001" y2="11.2"/>
        <line x1="12" y1="7.2" 
              x2="11.68" y2="11.2"/>
    </g>
</svg>