<?xml version="1.0" encoding="UTF-8"?>
<svg width="128" height="128" viewBox="0 0 128 128" xmlns="http://www.w3.org/2000/svg">
    <defs>
        <linearGradient id="bgGradient" x1="0%" y1="0%" x2="100%" y2="100%">
            <stop offset="0%" style="stop-color:#667eea;stop-opacity:1" />
            <stop offset="100%" style="stop-color:#764ba2;stop-opacity:1" />
        </linearGradient>
        <radialGradient id="sparkle1">
            <stop offset="0%" style="stop-color:#ffffff;stop-opacity:0.9" />
            <stop offset="100%" style="stop-color:#ffffff;stop-opacity:0" />
        </radialGradient>
    </defs>
    
    <!-- Background -->
    <rect width="128" height="128" rx="19.2" fill="url(#bgGradient)"/>
    
    <!-- Folder tab -->
    <rect x="32" y="34.559999999999995" 
          width="25.6" height="10.24" 
          rx="2.56" fill="rgba(255,255,255,0.3)"/>
    
    <!-- Folder body -->
    <rect x="32" y="44.8" 
          width="64" height="51.2" 
          rx="3.84" fill="rgba(255,255,255,0.25)"/>
    
    <!-- Sparkles -->
    <g opacity="0.9">
        <!-- Sparkle 1 -->
        <path d="M 32 21.759999999999998 
                 L 34.56 29.44
                 L 42.24 32
                 L 34.56 34.56
                 L 32 42.24
                 L 29.44 34.56
                 L 21.759999999999998 32
                 L 29.44 29.44 Z" 
              fill="white"/>
        
        <!-- Sparkle 2 -->
        <path d="M 89.6 17.92 
                 L 91.52 23.68
                 L 97.28 25.6
                 L 91.52 27.520000000000003
                 L 89.6 33.28
                 L 87.67999999999999 27.520000000000003
                 L 81.91999999999999 25.6
                 L 87.67999999999999 23.68 Z" 
              fill="white"/>
        
        <!-- Sparkle 3 -->
        <path d="M 96 74.24000000000001 
                 L 98.176 81.024
                 L 104.96000000000001 83.2
                 L 98.176 85.376
                 L 96 92.16
                 L 93.824 85.376
                 L 87.03999999999999 83.2
                 L 93.824 81.024 Z" 
              fill="white"/>
    </g>
    
    <!-- Broom handle -->
    <line x1="83.2" y1="51.2" 
          x2="70.4" y2="38.400000000000006" 
          stroke="rgba(255,255,255,0.8)" stroke-width="10.24" stroke-linecap="round"/>
    
    <!-- Broom bristles -->
    <path d="M 64 57.6
             L 102.4 57.6
             L 96 89.6
             L 70.4 89.6 Z"
          fill="rgba(255,255,255,0.7)"/>
    
    <!-- Bristle lines -->
    <g stroke="rgba(255,255,255,0.3)" stroke-width="2.56">
        <line x1="70.4" y1="57.6" 
              x2="72.96000000000001" y2="89.6"/>
        <line x1="76.8" y1="57.6" 
              x2="78.08" y2="89.6"/>
        <line x1="83.2" y1="57.6" 
              x2="83.2" y2="89.6"/>
        <line x1="89.60000000000001" y1="57.6" 
              x2="88.32000000000001" y2="89.6"/>
        <line x1="96" y1="57.6" 
              x2="93.44" y2="89.6"/>
    </g>
</svg>