<?xml version="1.0" encoding="UTF-8"?>
<svg width="256" height="256" viewBox="0 0 256 256" xmlns="http://www.w3.org/2000/svg">
    <defs>
        <linearGradient id="bgGradient" x1="0%" y1="0%" x2="100%" y2="100%">
            <stop offset="0%" style="stop-color:#667eea;stop-opacity:1" />
            <stop offset="100%" style="stop-color:#764ba2;stop-opacity:1" />
        </linearGradient>
        <radialGradient id="sparkle1">
            <stop offset="0%" style="stop-color:#ffffff;stop-opacity:0.9" />
            <stop offset="100%" style="stop-color:#ffffff;stop-opacity:0" />
        </radialGradient>
    </defs>
    
    <!-- Background -->
    <rect width="256" height="256" rx="38.4" fill="url(#bgGradient)"/>
    
    <!-- Folder tab -->
    <rect x="64" y="69.11999999999999" 
          width="51.2" height="20.48" 
          rx="5.12" fill="rgba(255,255,255,0.3)"/>
    
    <!-- Folder body -->
    <rect x="64" y="89.6" 
          width="128" height="102.4" 
          rx="7.68" fill="rgba(255,255,255,0.25)"/>
    
    <!-- Sparkles -->
    <g opacity="0.9">
        <!-- Sparkle 1 -->
        <path d="M 64 43.519999999999996 
                 L 69.12 58.88
                 L 84.48 64
                 L 69.12 69.12
                 L 64 84.48
                 L 58.88 69.12
                 L 43.519999999999996 64
                 L 58.88 58.88 Z" 
              fill="white"/>
        
        <!-- Sparkle 2 -->
        <path d="M 179.2 35.84 
                 L 183.04 47.36
                 L 194.56 51.2
                 L 183.04 55.040000000000006
                 L 179.2 66.56
                 L 175.35999999999999 55.040000000000006
                 L 163.83999999999997 51.2
                 L 175.35999999999999 47.36 Z" 
              fill="white"/>
        
        <!-- Sparkle 3 -->
        <path d="M 192 148.48000000000002 
                 L 196.352 162.048
                 L 209.92000000000002 166.4
                 L 196.352 170.752
                 L 192 184.32
                 L 187.648 170.752
                 L 174.07999999999998 166.4
                 L 187.648 162.048 Z" 
              fill="white"/>
    </g>
    
    <!-- Broom handle -->
    <line x1="166.4" y1="102.4" 
          x2="140.8" y2="76.80000000000001" 
          stroke="rgba(255,255,255,0.8)" stroke-width="20.48" stroke-linecap="round"/>
    
    <!-- Broom bristles -->
    <path d="M 128 115.2
             L 204.8 115.2
             L 192 179.2
             L 140.8 179.2 Z"
          fill="rgba(255,255,255,0.7)"/>
    
    <!-- Bristle lines -->
    <g stroke="rgba(255,255,255,0.3)" stroke-width="5.12">
        <line x1="140.8" y1="115.2" 
              x2="145.92000000000002" y2="179.2"/>
        <line x1="153.6" y1="115.2" 
              x2="156.16" y2="179.2"/>
        <line x1="166.4" y1="115.2" 
              x2="166.4" y2="179.2"/>
        <line x1="179.20000000000002" y1="115.2" 
              x2="176.64000000000001" y2="179.2"/>
        <line x1="192" y1="115.2" 
              x2="186.88" y2="179.2"/>
    </g>
</svg>