<?xml version="1.0" encoding="UTF-8"?>
<svg width="32" height="32" viewBox="0 0 32 32" xmlns="http://www.w3.org/2000/svg">
    <defs>
        <linearGradient id="bgGradient" x1="0%" y1="0%" x2="100%" y2="100%">
            <stop offset="0%" style="stop-color:#667eea;stop-opacity:1" />
            <stop offset="100%" style="stop-color:#764ba2;stop-opacity:1" />
        </linearGradient>
        <radialGradient id="sparkle1">
            <stop offset="0%" style="stop-color:#ffffff;stop-opacity:0.9" />
            <stop offset="100%" style="stop-color:#ffffff;stop-opacity:0" />
        </radialGradient>
    </defs>
    
    <!-- Background -->
    <rect width="32" height="32" rx="4.8" fill="url(#bgGradient)"/>
    
    <!-- Folder tab -->
    <rect x="8" y="8.639999999999999" 
          width="6.4" height="2.56" 
          rx="0.64" fill="rgba(255,255,255,0.3)"/>
    
    <!-- Folder body -->
    <rect x="8" y="11.2" 
          width="16" height="12.8" 
          rx="0.96" fill="rgba(255,255,255,0.25)"/>
    
    <!-- Sparkles -->
    <g opacity="0.9">
        <!-- Sparkle 1 -->
        <path d="M 8 5.4399999999999995 
                 L 8.64 7.36
                 L 10.56 8
                 L 8.64 8.64
                 L 8 10.56
                 L 7.36 8.64
                 L 5.4399999999999995 8
                 L 7.36 7.36 Z" 
              fill="white"/>
        
        <!-- Sparkle 2 -->
        <path d="M 22.4 4.48 
                 L 22.88 5.92
                 L 24.32 6.4
                 L 22.88 6.880000000000001
                 L 22.4 8.32
                 L 21.919999999999998 6.880000000000001
                 L 20.479999999999997 6.4
                 L 21.919999999999998 5.92 Z" 
              fill="white"/>
        
        <!-- Sparkle 3 -->
        <path d="M 24 18.560000000000002 
                 L 24.544 20.256
                 L 26.240000000000002 20.8
                 L 24.544 21.344
                 L 24 23.04
                 L 23.456 21.344
                 L 21.759999999999998 20.8
                 L 23.456 20.256 Z" 
              fill="white"/>
    </g>
    
    <!-- Broom handle -->
    <line x1="20.8" y1="12.8" 
          x2="17.6" y2="9.600000000000001" 
          stroke="rgba(255,255,255,0.8)" stroke-width="2.56" stroke-linecap="round"/>
    
    <!-- Broom bristles -->
    <path d="M 16 14.4
             L 25.6 14.4
             L 24 22.4
             L 17.6 22.4 Z"
          fill="rgba(255,255,255,0.7)"/>
    
    <!-- Bristle lines -->
    <g stroke="rgba(255,255,255,0.3)" stroke-width="0.64">
        <line x1="17.6" y1="14.4" 
              x2="18.240000000000002" y2="22.4"/>
        <line x1="19.2" y1="14.4" 
              x2="19.52" y2="22.4"/>
        <line x1="20.8" y1="14.4" 
              x2="20.8" y2="22.4"/>
        <line x1="22.400000000000002" y1="14.4" 
              x2="22.080000000000002" y2="22.4"/>
        <line x1="24" y1="14.4" 
              x2="23.36" y2="22.4"/>
    </g>
</svg>