<?xml version="1.0" encoding="UTF-8"?>
<svg width="64" height="64" viewBox="0 0 64 64" xmlns="http://www.w3.org/2000/svg">
    <defs>
        <linearGradient id="bgGradient" x1="0%" y1="0%" x2="100%" y2="100%">
            <stop offset="0%" style="stop-color:#667eea;stop-opacity:1" />
            <stop offset="100%" style="stop-color:#764ba2;stop-opacity:1" />
        </linearGradient>
        <radialGradient id="sparkle1">
            <stop offset="0%" style="stop-color:#ffffff;stop-opacity:0.9" />
            <stop offset="100%" style="stop-color:#ffffff;stop-opacity:0" />
        </radialGradient>
    </defs>
    
    <!-- Background -->
    <rect width="64" height="64" rx="9.6" fill="url(#bgGradient)"/>
    
    <!-- Folder tab -->
    <rect x="16" y="17.279999999999998" 
          width="12.8" height="5.12" 
          rx="1.28" fill="rgba(255,255,255,0.3)"/>
    
    <!-- Folder body -->
    <rect x="16" y="22.4" 
          width="32" height="25.6" 
          rx="1.92" fill="rgba(255,255,255,0.25)"/>
    
    <!-- Sparkles -->
    <g opacity="0.9">
        <!-- Sparkle 1 -->
        <path d="M 16 10.879999999999999 
                 L 17.28 14.72
                 L 21.12 16
                 L 17.28 17.28
                 L 16 21.12
                 L 14.72 17.28
                 L 10.879999999999999 16
                 L 14.72 14.72 Z" 
              fill="white"/>
        
        <!-- Sparkle 2 -->
        <path d="M 44.8 8.96 
                 L 45.76 11.84
                 L 48.64 12.8
                 L 45.76 13.760000000000002
                 L 44.8 16.64
                 L 43.839999999999996 13.760000000000002
                 L 40.959999999999994 12.8
                 L 43.839999999999996 11.84 Z" 
              fill="white"/>
        
        <!-- Sparkle 3 -->
        <path d="M 48 37.120000000000005 
                 L 49.088 40.512
                 L 52.480000000000004 41.6
                 L 49.088 42.688
                 L 48 46.08
                 L 46.912 42.688
                 L 43.519999999999996 41.6
                 L 46.912 40.512 Z" 
              fill="white"/>
    </g>
    
    <!-- Broom handle -->
    <line x1="41.6" y1="25.6" 
          x2="35.2" y2="19.200000000000003" 
          stroke="rgba(255,255,255,0.8)" stroke-width="5.12" stroke-linecap="round"/>
    
    <!-- Broom bristles -->
    <path d="M 32 28.8
             L 51.2 28.8
             L 48 44.8
             L 35.2 44.8 Z"
          fill="rgba(255,255,255,0.7)"/>
    
    <!-- Bristle lines -->
    <g stroke="rgba(255,255,255,0.3)" stroke-width="1.28">
        <line x1="35.2" y1="28.8" 
              x2="36.480000000000004" y2="44.8"/>
        <line x1="38.4" y1="28.8" 
              x2="39.04" y2="44.8"/>
        <line x1="41.6" y1="28.8" 
              x2="41.6" y2="44.8"/>
        <line x1="44.800000000000004" y1="28.8" 
              x2="44.160000000000004" y2="44.8"/>
        <line x1="48" y1="28.8" 
              x2="46.72" y2="44.8"/>
    </g>
</svg>